<?xml version="1.0" encoding="UTF-8" ?>
<!DOCTYPE svg PUBLIC "-//W3C//DTD SVG 1.1//EN" "http://www.w3.org/Graphics/SVG/1.1/DTD/svg11.dtd">
<svg preserveAspectRatio="xMidYMid meet"   viewBox="0 0 70 70" version="1.1" xmlns="http://www.w3.org/2000/svg">
<path class="octcol" fill="#e5e5e5" d=" M 35.04 0.00 L 35.60 0.00 C 40.78 2.34 45.96 4.70 51.29 6.71 C 54.02 7.88 57.01 8.68 59.38 10.54 C 60.97 12.53 61.72 15.02 62.70 17.33 C 64.98 23.30 67.63 29.12 70.00 35.05 L 70.00 35.56 C 67.69 40.77 65.32 45.97 63.29 51.30 C 62.10 54.04 61.30 57.04 59.42 59.41 C 57.25 61.12 54.54 61.90 52.03 62.96 C 46.28 65.15 40.69 67.75 34.96 70.00 L 34.43 70.00 C 27.41 66.70 20.16 63.93 13.01 60.93 C 9.74 59.85 8.82 56.27 7.60 53.44 C 5.23 47.21 2.48 41.14 0.00 34.96 L 0.00 34.40 C 2.69 28.52 5.26 22.59 7.56 16.55 C 8.76 13.72 9.72 10.16 13.00 9.10 C 20.35 6.08 27.71 3.07 35.04 0.00 Z" />
<path class="octbg" fill="#ffffff" d=" M 34.42 2.55 C 36.08 2.28 37.64 3.27 39.16 3.77 C 44.77 6.26 50.51 8.46 56.14 10.88 C 58.73 11.70 59.33 14.61 60.35 16.78 C 62.45 22.25 64.90 27.58 67.03 33.04 C 68.38 35.91 66.18 38.74 65.29 41.40 C 62.68 46.86 61.04 52.79 58.01 58.02 C 51.50 61.47 44.39 63.71 37.68 66.78 C 34.38 68.64 31.03 66.10 27.95 65.00 C 22.71 62.51 16.99 60.99 12.00 58.01 C 9.82 54.57 8.75 50.56 7.08 46.87 C 5.58 42.90 3.40 39.15 2.46 35.00 C 4.49 27.98 7.98 21.43 10.55 14.58 C 11.50 11.07 15.34 10.35 18.23 9.07 C 23.69 7.07 28.88 4.33 34.42 2.55 Z" />


</svg>
