<?xml version="1.0" encoding="utf-8"?>
<!-- Generator: Adobe Illustrator 21.1.0, SVG Export Plug-In . SVG Version: 6.00 Build 0)  -->
<svg version="1.1" id="Слой_1" xmlns="http://www.w3.org/2000/svg" xmlns:xlink="http://www.w3.org/1999/xlink" x="0px" y="0px"
	 viewBox="0 0 4150.2 1674.4" style="enable-background:new 0 0 4150.2 1674.4;" xml:space="preserve">
<style type="text/css">
	.st0{display:none;fill:#001330;}
	.st1{fill:url(#SVGID_1_);}
	.st2{fill:url(#SVGID_2_);}
	.st3{enable-background:new    ;}
	.st4{fill:#FFFFFF;}
</style>
<g id="Слой_1_1_">
	<title>logo</title>
</g>
<rect class="st0" width="4150.2" height="1674.4"/>
<linearGradient id="SVGID_1_" gradientUnits="userSpaceOnUse" x1="488.5" y1="241.3113" x2="1253.4" y2="241.3113" gradientTransform="matrix(1 0 0 1 0 596.3887)">
	<stop  offset="0" style="stop-color:#00A9C9"/>
	<stop  offset="1" style="stop-color:#00CDA9"/>
</linearGradient>
<path class="st1" d="M1191.4,1208.2H859c-204.3,0-370.5-166.2-370.5-370.5S654.7,467.2,859,467.2h332.4c34.3,0,62,27.8,62,62
	c0,34.3-27.8,62-62,62H859c-135.9,0-246.4,110.5-246.4,246.4S723.1,1084,859,1084h332.4c34.3,0,62,27.8,62,62
	C1253.4,1180.4,1225.7,1208.2,1191.4,1208.2z"/>
<linearGradient id="SVGID_2_" gradientUnits="userSpaceOnUse" x1="766" y1="244.0114" x2="1191.4" y2="244.0114" gradientTransform="matrix(1 0 0 1 0 596.3887)">
	<stop  offset="0" style="stop-color:#00A9C9"/>
	<stop  offset="1" style="stop-color:#00CDA9"/>
</linearGradient>
<path class="st2" d="M1129.4,902.4H828c-34.3,0-62-27.8-62-62s27.8-62,62-62l0,0h301.4c34.3,0,62,27.8,62,62
	S1163.6,902.4,1129.4,902.4z"/>
<g class="st3">
	<path class="st4" d="M1334.2,1134.8V559.7c0-26.5,5.9-46.6,17.7-60.2c11.8-13.6,27.8-20.4,47.8-20.4c20.1,0,36.3,6.7,48.6,20.2
		c12.3,13.4,18.5,33.6,18.5,60.5v575.1c0,26.9-6.2,47-18.7,60.5c-12.5,13.4-28.6,20.2-48.3,20.2c-19.4,0-35.2-7-47.4-20.9
		C1340.3,1180.7,1334.2,1160.7,1334.2,1134.8z"/>
	<path class="st4" d="M1974,978.4h-259.4c0.3,30.1,6.4,56.7,18.2,79.7c11.8,23,27.5,40.3,47.1,52c19.6,11.7,41.2,17.5,64.8,17.5
		c15.9,0,30.4-1.9,43.5-5.6c13.1-3.7,25.8-9.5,38.1-17.5c12.3-7.9,23.6-16.4,34-25.5c10.4-9.1,23.8-21.4,40.3-36.9
		c6.8-5.8,16.5-8.7,29.1-8.7c13.6,0,24.6,3.7,33,11.2c8.4,7.5,12.6,18,12.6,31.6c0,12-4.7,26-14.1,42c-9.4,16-23.6,31.4-42.5,46.1
		c-18.9,14.7-42.7,27-71.4,36.7s-61.6,14.6-98.8,14.6c-85.2,0-151.4-24.3-198.7-72.9c-47.3-48.6-70.9-114.5-70.9-197.7
		c0-39.2,5.8-75.5,17.5-109.1c11.7-33.5,28.7-62.3,51-86.2c22.3-24,49.9-42.3,82.6-55.1c32.7-12.8,69-19.2,108.8-19.2
		c51.8,0,96.3,10.9,133.3,32.8c37.1,21.9,64.8,50.1,83.3,84.8c18.5,34.7,27.7,69.9,27.7,105.9c0,33.4-9.6,55-28.7,64.8
		C2035.5,973.5,2008.6,978.4,1974,978.4z M1714.6,903.1H1955c-3.2-45.3-15.5-79.3-36.7-101.8c-21.2-22.5-49.1-33.8-83.8-33.8
		c-33,0-60.2,11.4-81.4,34.2C1732,824.7,1719.1,858.4,1714.6,903.1z"/>
	<path class="st4" d="M2669.6,773.4v385.2c0,44-4.7,81.9-14.1,113.7c-9.4,31.7-24.5,58-45.2,78.7c-20.7,20.7-47.8,36.1-81.4,46.1
		c-33.5,10-75.2,15.1-125.1,15.1c-45.7,0-86.5-6.4-122.4-19.2c-35.9-12.8-63.6-29.3-83.1-49.5c-19.4-20.2-29.1-41-29.1-62.4
		c0-16.2,5.5-29.4,16.5-39.6c11-10.2,24.3-15.3,39.8-15.3c19.4,0,36.4,8.6,51,25.7c7.1,8.7,14.5,17.6,22.1,26.5
		c7.6,8.9,16,16.5,25.3,22.8c9.2,6.3,20.3,11,33.3,14.1c12.9,3.1,27.8,4.6,44.7,4.6c34.3,0,61-4.8,79.9-14.3
		c18.9-9.6,32.2-22.9,39.8-40.1c7.6-17.2,12.1-35.5,13.4-55.1c1.3-19.6,2.3-51.1,2.9-94.5c-20.4,28.5-44,50.2-70.7,65.1
		c-26.7,14.9-58.5,22.3-95.5,22.3c-44.4,0-83.1-11.3-116.3-34c-33.2-22.7-58.7-54.4-76.5-95.2c-17.8-40.8-26.7-87.9-26.7-141.4
		c0-39.8,5.4-75.8,16.3-107.8c10.8-32.1,26.3-59.1,46.4-81.1c20.1-22,43.2-38.6,69.5-49.8s55-16.8,86.5-16.8
		c37.6,0,70.1,7.2,97.6,21.6c27.5,14.4,53.1,37,76.7,67.8v-18c0-23,5.7-40.8,17-53.4c11.3-12.6,25.9-18.9,43.7-18.9
		c25.6,0,42.6,8.3,51,25C2665.4,718,2669.6,742,2669.6,773.4z M2285.3,941.5c0,53.8,11.7,94.4,35.2,121.9
		c23.5,27.5,53.8,41.3,91.1,41.3c22,0,42.8-5.9,62.4-17.7c19.6-11.8,35.5-29.6,47.8-53.4c12.3-23.8,18.5-52.7,18.5-86.7
		c0-54.1-11.9-96.2-35.7-126.3c-23.8-30.1-55.1-45.2-94-45.2c-37.9,0-68.2,14.4-91.1,43.2C2296.8,847.4,2285.3,888.4,2285.3,941.5z"
		/>
	<path class="st4" d="M2922.2,1024.1v110.8c0,26.9-6.3,47-18.9,60.5c-12.6,13.4-28.7,20.2-48.1,20.2c-19.1,0-34.8-6.8-47.1-20.4
		c-12.3-13.6-18.5-33.7-18.5-60.2V765.7c0-59.6,21.5-89.4,64.6-89.4c22,0,37.9,7,47.6,20.9c9.7,13.9,15.1,34.5,16,61.7
		c15.9-27.2,32.1-47.8,48.8-61.7c16.7-13.9,38.9-20.9,66.8-20.9c27.8,0,54.9,7,81.1,20.9c26.2,13.9,39.3,32.4,39.3,55.4
		c0,16.2-5.6,29.6-16.8,40.1c-11.2,10.5-23.2,15.8-36.2,15.8c-4.9,0-16.6-3-35.2-9c-18.6-6-35.1-9-49.3-9
		c-19.4,0-35.3,5.1-47.6,15.3c-12.3,10.2-21.9,25.3-28.7,45.4c-6.8,20.1-11.5,44-14.1,71.6C2923.4,950.5,2922.2,984.3,2922.2,1024.1
		z"/>
	<path class="st4" d="M3684.8,945.9c0,39.5-6.2,75.9-18.5,109.3c-12.3,33.4-30.1,62-53.4,86c-23.3,24-51.2,42.3-83.5,55.1
		c-32.4,12.8-68.8,19.2-109.3,19.2c-40.2,0-76.3-6.5-108.3-19.4s-59.8-31.5-83.3-55.6c-23.5-24.1-41.3-52.6-53.4-85.5
		c-12.1-32.9-18.2-69.2-18.2-109.1c0-40.1,6.1-76.9,18.5-110.3c12.3-33.3,29.9-61.8,52.9-85.5c23-23.6,50.8-41.8,83.5-54.6
		c32.7-12.8,68.8-19.2,108.3-19.2c40.2,0,76.6,6.5,109.3,19.4c32.7,13,60.7,31.4,84,55.4c23.3,24,41,52.5,53.2,85.5
		C3678.7,869.6,3684.8,906,3684.8,945.9z M3551.7,945.9c0-54.1-11.9-96.2-35.7-126.3s-55.8-45.2-95.9-45.2
		c-25.9,0-48.7,6.7-68.5,20.2c-19.8,13.4-35,33.3-45.7,59.5s-16,56.8-16,91.8c0,34.7,5.3,64.9,15.8,90.8
		c10.5,25.9,25.6,45.7,45.2,59.5c19.6,13.8,42.7,20.6,69.2,20.6c40.2,0,72.1-15.1,95.9-45.4
		C3539.8,1041.2,3551.7,999.3,3551.7,945.9z"/>
</g>
</svg>
